<svg width="176" height="27" viewBox="0 0 176 27" fill="none" xmlns="http://www.w3.org/2000/svg">
<rect width="176" height="27" fill="#1E1E1E"/>
<g id="Hero">
<rect width="1921" height="8816" transform="translate(-115 -29)" fill="#09002C"/>
<g id="content" clip-path="url(#clip0_0_1)">
<g id="hero" clip-path="url(#clip1_0_1)">
<rect width="1921" height="1114" transform="translate(-115 -29)" fill="#09002C"/>
<g id="Group 1277">
<g id="Group 1282">
<g id="Ellipse 132" opacity="0.2" filter="url(#filter0_f_0_1)">
<ellipse cx="845" cy="666.5" rx="574" ry="574.5" fill="#FB37FF"/>
</g>
</g>
</g>
</g>
</g>
<g id="Frame 9">
<g id="Clip path group">
<mask id="mask0_0_1" style="mask-type:luminance" maskUnits="userSpaceOnUse" x="0" y="0" width="176" height="27">
<g id="clip1_34_2599">
<path id="Vector" d="M175.5 0H0.5V27H175.5V0Z" fill="white"/>
</g>
</mask>
<g mask="url(#mask0_0_1)">
<g id="Group">
<path id="Vector_2" d="M115.431 22.823C111.387 21.7045 108.388 17.969 108.388 13.5C108.388 9.0303 111.387 5.2952 115.431 4.1767V0C109.166 1.1857 104.42 6.7734 104.42 13.5C104.42 20.2266 109.166 25.8143 115.431 27V22.823Z" fill="white"/>
<path id="Vector_3" d="M120.378 0V4.1767C124.421 5.2952 127.42 9.0303 127.42 13.5C127.42 17.9692 124.421 21.7048 120.378 22.823V27C126.642 25.8143 131.388 20.2263 131.388 13.5C131.388 6.7734 126.642 1.1857 120.378 0Z" fill="white"/>
<path id="Vector_4" fill-rule="evenodd" clip-rule="evenodd" d="M37.3604 22.583L28.5636 4.35327L19.7793 22.583H23.962L25.2655 19.8679H31.8628L33.1661 22.583H37.3604ZM28.5763 12.9199L30.3329 16.6987H26.7954L28.5763 12.9199Z" fill="white"/>
<path id="Vector_5" d="M10.8023 11.8492V4.7016H14.6634V22.5656H10.8023V15.4068H4.3603V22.5656H0.5V4.7016H4.3603V11.8492H10.8023Z" fill="white"/>
<path id="Vector_6" d="M58.5723 22.5656H54.7221L46.354 11.1402V22.5656H42.4785V4.70172H46.3286L54.6962 16.1271V4.70172H58.5723V22.5656Z" fill="white"/>
<path id="Vector_7" fill-rule="evenodd" clip-rule="evenodd" d="M77.6959 7.32782C76.0515 5.81652 73.6817 4.70172 70.6554 4.70172V4.71282H65.5283V22.5654H70.6554C73.4523 22.5654 75.7989 21.6939 77.6959 19.9501C79.4169 18.3617 80.277 16.2619 80.277 13.6502C80.277 11.0385 79.4169 8.93142 77.6959 7.32782ZM69.3882 8.25882H70.6435C74.114 8.25882 76.417 10.4264 76.417 13.6225C76.417 16.8484 74.153 18.986 70.6798 18.986H69.3882V8.25882Z" fill="white"/>
<path id="Vector_8" d="M91.6826 19.0537C92.7516 19.0537 93.9316 18.2298 93.9316 17.2381C93.9316 15.9134 92.3746 15.5149 91.0756 15.1824C90.7756 15.1054 90.4886 15.032 90.2376 14.9515C87.8896 14.2098 85.8143 12.422 85.8143 9.98862C85.8143 6.97612 88.4496 4.54932 91.6996 4.54932C94.6616 4.54932 97.1166 6.58662 97.5146 9.23602L93.6686 9.98862C93.6686 9.00792 92.7806 8.18402 91.7226 8.18402C90.6476 8.18402 89.7596 9.00792 89.7596 9.99972C89.7596 11.4687 91.5916 11.9537 92.9286 12.3075C93.0556 12.3411 93.1786 12.3736 93.2946 12.4055C95.7256 13.0556 97.8706 14.773 97.8706 17.26C97.8706 20.2723 94.9546 22.705 91.7106 22.705C88.7306 22.705 86.0366 20.6791 85.5986 18.0185L89.4436 17.26C89.4436 18.2567 90.6126 19.0703 91.6996 19.0703L91.6826 19.0537Z" fill="white"/>
<path id="Vector_9" d="M156.959 22.6034H153.007V11.1925L147.568 18.533L142.101 11.1925V22.6034H138.152V4.72339H142.074L147.541 12.064L153.059 4.72339H156.959V22.6034Z" fill="white"/>
<path id="Vector_10" d="M163.915 22.6034V4.72339H175.5V8.29269H167.777V11.8842H173.57V15.4535H167.777V19.045H175.5V22.6034H163.915Z" fill="white"/>
</g>
</g>
</g>
</g>
</g>
<defs>
<filter id="filter0_f_0_1" x="-350" y="-529" width="2390" height="2391" filterUnits="userSpaceOnUse" color-interpolation-filters="sRGB">
<feFlood flood-opacity="0" result="BackgroundImageFix"/>
<feBlend mode="normal" in="SourceGraphic" in2="BackgroundImageFix" result="shape"/>
<feGaussianBlur stdDeviation="310.5" result="effect1_foregroundBlur_0_1"/>
</filter>
<clipPath id="clip0_0_1">
<rect width="1921" height="1114" fill="white" transform="translate(-115 -29)"/>
</clipPath>
<clipPath id="clip1_0_1">
<rect width="1921" height="1114" fill="white" transform="translate(-115 -29)"/>
</clipPath>
</defs>
</svg>
